<svg width="35.25" height="35.25" viewBox="0 0 47 47" fill="none" xmlns="http://www.w3.org/2000/svg">
<path d="M27.8337 18.2804C28.1957 18.6975 28.8273 18.7423 29.2444 18.3803C29.6616 18.0183 29.7063 17.3868 29.3443 16.9696L27.8337 18.2804ZM19.1663 28.7196C18.8044 28.3025 18.1728 28.2577 17.7556 28.6197C17.3385 28.9817 17.2938 29.6132 17.6557 30.0304L19.1663 28.7196ZM24.5 13.7083C24.5 13.156 24.0523 12.7083 23.5 12.7083C22.9477 12.7083 22.5 13.156 22.5 13.7083H24.5ZM22.5 33.2916C22.5 33.8439 22.9477 34.2917 23.5 34.2917C24.0523 34.2917 24.5 33.844 24.5 33.2917L22.5 33.2916ZM40.125 23.5C40.125 32.6817 32.6817 40.125 23.5 40.125V42.125C33.7863 42.125 42.125 33.7863 42.125 23.5H40.125ZM23.5 40.125C14.3183 40.125 6.875 32.6817 6.875 23.5H4.875C4.875 33.7863 13.2137 42.125 23.5 42.125V40.125ZM6.875 23.5C6.875 14.3183 14.3183 6.875 23.5 6.875V4.875C13.2137 4.875 4.875 13.2137 4.875 23.5H6.875ZM23.5 6.875C32.6817 6.875 40.125 14.3183 40.125 23.5H42.125C42.125 13.2137 33.7863 4.875 23.5 4.875V6.875ZM23.5 22.5C22.0476 22.5 20.7778 22.1057 19.9004 21.5208C19.0161 20.9312 18.625 20.2265 18.625 19.5833H16.625C16.625 21.1033 17.5491 22.3569 18.791 23.1849C20.04 24.0175 21.7078 24.5 23.5 24.5V22.5ZM18.625 19.5833C18.625 18.9402 19.0161 18.2355 19.9004 17.6459C20.7778 17.061 22.0476 16.6667 23.5 16.6667V14.6667C21.7078 14.6667 20.04 15.1492 18.791 15.9818C17.5491 16.8097 16.625 18.0634 16.625 19.5833H18.625ZM23.5 16.6667C25.4679 16.6667 27.0563 17.3844 27.8337 18.2804L29.3443 16.9696C28.0901 15.5242 25.8812 14.6667 23.5 14.6667V16.6667ZM23.5 24.5C24.9524 24.5 26.2222 24.8943 27.0996 25.4792C27.984 26.0688 28.375 26.7735 28.375 27.4167H30.375C30.375 25.8967 29.4509 24.6431 28.209 23.8151C26.96 22.9825 25.2922 22.5 23.5 22.5V24.5ZM22.5 13.7083V15.6667H24.5V13.7083H22.5ZM22.5 31.3333L22.5 33.2916L24.5 33.2917L24.5 31.3334L22.5 31.3333ZM23.5 30.3333C21.5321 30.3333 19.9437 29.6156 19.1663 28.7196L17.6557 30.0304C18.9099 31.4758 21.1188 32.3333 23.5 32.3333L23.5 30.3333ZM28.375 27.4167C28.375 28.0598 27.984 28.7645 27.0996 29.3541C26.2222 29.939 24.9525 30.3333 23.5 30.3333V32.3333C25.2923 32.3333 26.9601 31.8508 28.209 31.0182C29.4509 30.1903 30.375 28.9366 30.375 27.4167H28.375ZM22.5 15.6667L22.5 31.3333L24.5 31.3333L24.5 15.6667L22.5 15.6667Z" fill="#19A7CE"/>
</svg>
